<svg width="280" height="131" viewBox="0 0 280 131" fill="none" xmlns="http://www.w3.org/2000/svg">
<path d="M126.964 130.2C124.064 130 121.264 129.9 118.364 129.7C110.664 129.1 103.064 128 95.6638 126.2C69.8638 120.2 47.2638 108.2 27.5638 90.7C25.7638 89.1 23.9638 87.4 22.1638 85.7C21.7638 85.3 21.3638 84.8 21.1638 84.3C20.8638 83.6 20.9638 82.8 21.5638 82.2C22.1638 81.6 22.9638 81.4 23.6638 81.7C24.1638 81.9 24.5638 82.1 25.0638 82.4C43.8638 94.1 64.4638 102.6 86.0638 107.6C93.2638 109.3 100.564 110.6 107.964 111.5C118.464 112.8 129.164 113.3 139.764 112.9C145.464 112.7 151.164 112.2 156.864 111.5C170.064 109.8 183.164 106.8 195.764 102.6C202.464 100.4 208.964 97.9 215.264 94.9C216.164 94.4 217.364 94.2 218.364 94.5C220.064 94.9 221.164 96.7 220.764 98.4C220.664 98.6 220.564 98.9 220.464 99.1C220.064 99.9 219.464 100.6 218.764 101.1C212.764 105.8 206.264 110 199.364 113.4C186.364 120 172.564 124.6 158.264 127.3C150.064 128.8 141.764 129.7 133.464 130V130.2H127.164H126.964ZM223.564 79C227.064 79.1 230.464 79.3 233.764 80.2C234.664 80.5 235.564 80.8 236.464 81.2C237.664 81.7 238.464 82.8 238.664 84.1C238.864 85.6 238.964 87.1 238.864 88.6C238.164 97.6 235.364 106.2 230.764 113.9C229.064 116.7 227.064 119.2 224.664 121.4C224.164 121.9 223.664 122.2 222.964 122.4C221.964 122.7 221.364 122.1 221.264 121.1C221.364 120.6 221.464 120 221.664 119.5C223.464 114.6 225.264 109.7 226.664 104.6C227.464 101.8 228.064 99 228.464 96.1C228.564 95.1 228.664 94 228.564 93C228.464 91.2 227.364 89.7 225.664 89.2C224.064 88.7 222.364 88.4 220.664 88.3C215.864 88.1 210.964 88.3 206.264 88.9L199.864 89.7C199.164 89.8 198.564 89.7 198.164 89.1C197.764 88.5 197.964 87.8 198.364 87.2C198.764 86.6 199.264 86.1 199.964 85.7C203.864 82.9 208.164 81.2 212.864 80.1C216.264 79.5 219.864 79.1 223.564 79Z" fill="white"/>
<path d="M21.712 74.0304C15.9712 74.0304 11.2853 72.7301 7.6544 70.1296C4.07253 67.5291 2.10987 63.8981 1.7664 59.2368H12.3648C12.7083 61.3467 13.6896 62.9413 15.3088 64.0208C16.928 65.1003 18.9397 65.64 21.344 65.64C22.6688 65.64 23.92 65.4683 25.0976 65.1248C26.2752 64.7813 27.232 64.2416 27.968 63.5056C28.704 62.7205 29.072 61.7637 29.072 60.6352C29.072 59.5067 28.7285 58.6235 28.0416 57.9856C27.4037 57.2987 26.4224 56.7589 25.0976 56.3664C23.8219 55.9739 22.08 55.6059 19.872 55.2624C19.5776 55.2133 19.2587 55.1643 18.9152 55.1152C18.6208 55.0661 18.3019 55.0171 17.9584 54.968C14.4747 54.5264 11.6533 53.9867 9.4944 53.3488C7.38453 52.6619 5.78987 51.7541 4.7104 50.6256C3.68 49.448 3.1648 47.9269 3.1648 46.0624C3.1648 43.8053 3.87627 41.8672 5.2992 40.248C6.72213 38.5797 8.6848 37.3285 11.1872 36.4944C13.7387 35.6112 16.6336 35.1696 19.872 35.1696C25.5147 35.1696 30.0043 36.4699 33.3408 39.0704C36.7264 41.6709 38.5664 45.3509 38.8608 50.1104H28.704C28.5568 47.9515 27.7227 46.3323 26.2016 45.2528C24.6805 44.1733 22.816 43.6336 20.608 43.6336C18.6453 43.6336 16.9525 44.0997 15.5296 45.032C14.1067 45.9152 13.3952 47.1909 13.3952 48.8592C13.3952 49.7915 13.6896 50.6011 14.2784 51.288C14.9163 51.9749 15.8731 52.5637 17.1488 53.0544C18.4245 53.496 20.0928 53.864 22.1536 54.1584C22.4971 54.2075 22.8405 54.2565 23.184 54.3056C23.5765 54.3547 23.9691 54.4037 24.3616 54.4528C24.5579 54.5019 24.7541 54.5264 24.9504 54.5264C25.1467 54.5264 25.3429 54.5509 25.5392 54.6C28.6304 54.9925 31.1573 55.5568 33.12 56.2928C35.0827 57.0288 36.5301 57.9856 37.4624 59.1632C38.3947 60.2917 38.8608 61.7392 38.8608 63.5056C38.8608 65.7136 38.1248 67.6027 36.6528 69.1728C35.1808 70.7429 33.1445 71.9451 30.544 72.7792C27.9435 73.6133 24.9995 74.0304 21.712 74.0304ZM64.5944 73.736C59.7858 73.736 56.2285 72.7056 53.9224 70.6448C51.6162 68.5349 50.4632 65.4683 50.4632 61.4448V45.4H42.1464V36.2H47.004C48.525 36.2 49.6781 35.8075 50.4632 35.0224C51.2482 34.1883 51.6408 33.0352 51.6408 31.5632V27.368H60.6936V36.2H73.9416V45.4H60.6936V58.8688C60.6936 60.7824 61.1842 62.1563 62.1656 62.9904C63.1469 63.8245 64.7416 64.2416 66.9496 64.2416C68.9122 64.2416 71.2429 64.0208 73.9416 63.5792V72.7792C72.4696 73.0245 70.8749 73.2453 69.1576 73.4416C67.4402 73.6379 65.9192 73.736 64.5944 73.736ZM82.8696 73V36.2H93.1V48.7856C93.7378 45.0565 95.1362 41.9163 97.2952 39.3648C99.5032 36.7643 102.349 35.464 105.833 35.464C108.335 35.464 110.396 36.0037 112.015 37.0832C113.683 38.1627 114.886 39.7328 115.622 41.7936C116.407 43.8544 116.799 46.4059 116.799 49.448V52.9808H106.569V51.5088C106.569 49.448 106.029 47.8779 104.95 46.7984C103.919 45.6699 102.496 45.1056 100.681 45.1056C99.2088 45.1056 97.9085 45.4981 96.78 46.2832C95.6514 47.0192 94.7437 48.0741 94.0568 49.448C93.4189 50.8219 93.1 52.3184 93.1 53.9376V73H82.8696ZM139.681 73.736C135.952 73.736 132.567 72.9264 129.524 71.3072C126.531 69.688 124.152 67.4555 122.385 64.6096C120.668 61.7637 119.809 58.5253 119.809 54.8944C119.809 51.1163 120.692 47.7552 122.459 44.8112C124.225 41.8672 126.63 39.5856 129.672 37.9664C132.714 36.2981 136.075 35.464 139.755 35.464C143.435 35.464 146.747 36.2981 149.691 37.9664C152.684 39.5856 155.039 41.8672 156.756 44.8112C158.474 47.7061 159.332 50.9691 159.332 54.6C159.332 54.6981 159.332 54.8208 159.332 54.968C159.332 55.1152 159.332 55.2379 159.332 55.336H129.892C129.991 57.1024 130.481 58.6971 131.364 60.12C132.297 61.4939 133.474 62.5979 134.897 63.432C136.369 64.2171 137.988 64.6096 139.755 64.6096C141.472 64.6096 143.018 64.2661 144.392 63.5792C145.766 62.8923 146.722 61.9845 147.262 60.856H158.228C157.983 62.9168 157.051 64.9531 155.432 66.9648C153.862 68.9275 151.703 70.5467 148.955 71.8224C146.256 73.0981 143.165 73.736 139.681 73.736ZM149.691 53.864C149.593 52.0976 149.102 50.5275 148.219 49.1536C147.336 47.7307 146.158 46.6267 144.686 45.8416C143.263 45.0075 141.644 44.5904 139.828 44.5904C138.062 44.5904 136.443 45.0075 134.971 45.8416C133.548 46.6267 132.37 47.7307 131.438 49.1536C130.555 50.5275 130.064 52.0976 129.966 53.864H149.691ZM175.186 73.8832C171.898 73.8832 169.249 73.0981 167.237 71.528C165.225 69.9088 164.219 67.6272 164.219 64.6832C164.219 61.8373 165.152 59.6293 167.016 58.0592C168.93 56.4891 171.138 55.4096 173.64 54.8208C176.192 54.232 179.062 53.7904 182.251 53.496C184.754 53.3488 186.692 53.0299 188.066 52.5392C189.489 52.0485 190.2 51.1163 190.2 49.7424C190.2 47.7797 189.513 46.2832 188.139 45.2528C186.815 44.1733 185.195 43.6336 183.282 43.6336C181.025 43.6336 179.185 44.2469 177.762 45.4736C176.339 46.7003 175.505 48.4176 175.259 50.6256H165.765C165.912 47.4363 166.795 44.7131 168.415 42.456C170.034 40.1499 172.144 38.408 174.744 37.2304C177.394 36.0528 180.289 35.464 183.429 35.464C186.569 35.464 189.366 36.0528 191.819 37.2304C194.273 38.408 196.186 40.1253 197.56 42.3824C198.934 44.6395 199.621 47.3381 199.621 50.4784V64.0208H203.89V73H190.274V59.752C189.44 63.8736 187.722 67.2592 185.122 69.9088C182.57 72.5584 179.258 73.8832 175.186 73.8832ZM180.264 65.9344C182.031 65.9344 183.674 65.4192 185.195 64.3888C186.716 63.3584 187.919 62.0336 188.802 60.4144C189.734 58.7461 190.2 56.9797 190.2 55.1152L190.274 52.8336C189.685 53.3733 188.949 53.7659 188.066 54.0112C187.232 54.2565 186.054 54.5019 184.533 54.7472C184.435 54.7472 184.337 54.7717 184.239 54.8208C184.14 54.8208 184.067 54.8208 184.018 54.8208C180.927 55.1152 178.596 55.7531 177.026 56.7344C175.456 57.6667 174.671 59.0896 174.671 61.0032C174.671 62.6715 175.186 63.9227 176.216 64.7568C177.247 65.5419 178.596 65.9344 180.264 65.9344ZM212.316 73V36.2H222.547V48.344C223.136 44.3205 224.485 41.1803 226.595 38.9232C228.705 36.6171 231.575 35.464 235.206 35.464C239.23 35.464 242.272 36.6416 244.332 38.9968C246.393 41.3029 247.62 44.5904 248.012 48.8592C248.552 44.6395 249.852 41.352 251.913 38.9968C254.023 36.6416 256.992 35.464 260.819 35.464C264.057 35.464 266.609 36.1264 268.473 37.4512C270.387 38.7269 271.736 40.5424 272.521 42.8976C273.355 45.2528 273.772 48.1968 273.772 51.7296V73H263.468V53.3488C263.419 50.8464 262.708 48.8347 261.334 47.3136C259.96 45.7435 258.169 44.9584 255.961 44.9584C254.489 44.9584 253.164 45.3509 251.987 46.136C250.809 46.9211 249.877 47.976 249.19 49.3008C248.503 50.6256 248.16 52.1221 248.16 53.7904V73H237.856V53.3488C237.807 50.8464 237.095 48.8347 235.721 47.3136C234.347 45.7435 232.556 44.9584 230.348 44.9584C228.876 44.9584 227.552 45.3509 226.374 46.136C225.196 46.9211 224.264 47.976 223.577 49.3008C222.89 50.6256 222.547 52.1221 222.547 53.7904V73H212.316Z" fill="white"/>
</svg>
