<svg width="273" height="48" viewBox="0 0 273 48" fill="none" xmlns="http://www.w3.org/2000/svg">
<path d="M20.712 47.0304C14.9712 47.0304 10.2853 45.7301 6.6544 43.1296C3.07253 40.5291 1.10987 36.8981 0.7664 32.2368H11.3648C11.7083 34.3467 12.6896 35.9413 14.3088 37.0208C15.928 38.1003 17.9397 38.64 20.344 38.64C21.6688 38.64 22.92 38.4683 24.0976 38.1248C25.2752 37.7813 26.232 37.2416 26.968 36.5056C27.704 35.7205 28.072 34.7637 28.072 33.6352C28.072 32.5067 27.7285 31.6235 27.0416 30.9856C26.4037 30.2987 25.4224 29.7589 24.0976 29.3664C22.8219 28.9739 21.08 28.6059 18.872 28.2624C18.5776 28.2133 18.2587 28.1643 17.9152 28.1152C17.6208 28.0661 17.3019 28.0171 16.9584 27.968C13.4747 27.5264 10.6533 26.9867 8.4944 26.3488C6.38453 25.6619 4.78987 24.7541 3.7104 23.6256C2.68 22.448 2.1648 20.9269 2.1648 19.0624C2.1648 16.8053 2.87627 14.8672 4.2992 13.248C5.72213 11.5797 7.6848 10.3285 10.1872 9.4944C12.7387 8.6112 15.6336 8.1696 18.872 8.1696C24.5147 8.1696 29.0043 9.46987 32.3408 12.0704C35.7264 14.6709 37.5664 18.3509 37.8608 23.1104H27.704C27.5568 20.9515 26.7227 19.3323 25.2016 18.2528C23.6805 17.1733 21.816 16.6336 19.608 16.6336C17.6453 16.6336 15.9525 17.0997 14.5296 18.032C13.1067 18.9152 12.3952 20.1909 12.3952 21.8592C12.3952 22.7915 12.6896 23.6011 13.2784 24.288C13.9163 24.9749 14.8731 25.5637 16.1488 26.0544C17.4245 26.496 19.0928 26.864 21.1536 27.1584C21.4971 27.2075 21.8405 27.2565 22.184 27.3056C22.5765 27.3547 22.9691 27.4037 23.3616 27.4528C23.5579 27.5019 23.7541 27.5264 23.9504 27.5264C24.1467 27.5264 24.3429 27.5509 24.5392 27.6C27.6304 27.9925 30.1573 28.5568 32.12 29.2928C34.0827 30.0288 35.5301 30.9856 36.4624 32.1632C37.3947 33.2917 37.8608 34.7392 37.8608 36.5056C37.8608 38.7136 37.1248 40.6027 35.6528 42.1728C34.1808 43.7429 32.1445 44.9451 29.544 45.7792C26.9435 46.6133 23.9995 47.0304 20.712 47.0304ZM63.5944 46.736C58.7858 46.736 55.2285 45.7056 52.9224 43.6448C50.6162 41.5349 49.4632 38.4683 49.4632 34.4448V18.4H41.1464V9.2H46.004C47.525 9.2 48.6781 8.80747 49.4632 8.0224C50.2482 7.18826 50.6408 6.0352 50.6408 4.5632V0.368001H59.6936V9.2H72.9416V18.4H59.6936V31.8688C59.6936 33.7824 60.1842 35.1563 61.1656 35.9904C62.1469 36.8245 63.7416 37.2416 65.9496 37.2416C67.9122 37.2416 70.2429 37.0208 72.9416 36.5792V45.7792C71.4696 46.0245 69.8749 46.2453 68.1576 46.4416C66.4402 46.6379 64.9192 46.736 63.5944 46.736ZM81.8696 46V9.2H92.1V21.7856C92.7378 18.0565 94.1362 14.9163 96.2952 12.3648C98.5032 9.76426 101.349 8.464 104.833 8.464C107.335 8.464 109.396 9.00373 111.015 10.0832C112.683 11.1627 113.886 12.7328 114.622 14.7936C115.407 16.8544 115.799 19.4059 115.799 22.448V25.9808H105.569V24.5088C105.569 22.448 105.029 20.8779 103.95 19.7984C102.919 18.6699 101.496 18.1056 99.6808 18.1056C98.2088 18.1056 96.9085 18.4981 95.78 19.2832C94.6514 20.0192 93.7437 21.0741 93.0568 22.448C92.4189 23.8219 92.1 25.3184 92.1 26.9376V46H81.8696ZM138.681 46.736C134.952 46.736 131.567 45.9264 128.524 44.3072C125.531 42.688 123.152 40.4555 121.385 37.6096C119.668 34.7637 118.809 31.5253 118.809 27.8944C118.809 24.1163 119.692 20.7552 121.459 17.8112C123.225 14.8672 125.63 12.5856 128.672 10.9664C131.714 9.29813 135.075 8.464 138.755 8.464C142.435 8.464 145.747 9.29813 148.691 10.9664C151.684 12.5856 154.039 14.8672 155.756 17.8112C157.474 20.7061 158.332 23.9691 158.332 27.6C158.332 27.6981 158.332 27.8208 158.332 27.968C158.332 28.1152 158.332 28.2379 158.332 28.336H128.892C128.991 30.1024 129.481 31.6971 130.364 33.12C131.297 34.4939 132.474 35.5979 133.897 36.432C135.369 37.2171 136.988 37.6096 138.755 37.6096C140.472 37.6096 142.018 37.2661 143.392 36.5792C144.766 35.8923 145.722 34.9845 146.262 33.856H157.228C156.983 35.9168 156.051 37.9531 154.432 39.9648C152.862 41.9275 150.703 43.5467 147.955 44.8224C145.256 46.0981 142.165 46.736 138.681 46.736ZM148.691 26.864C148.593 25.0976 148.102 23.5275 147.219 22.1536C146.336 20.7307 145.158 19.6267 143.686 18.8416C142.263 18.0075 140.644 17.5904 138.828 17.5904C137.062 17.5904 135.443 18.0075 133.971 18.8416C132.548 19.6267 131.37 20.7307 130.438 22.1536C129.555 23.5275 129.064 25.0976 128.966 26.864H148.691ZM174.186 46.8832C170.898 46.8832 168.249 46.0981 166.237 44.528C164.225 42.9088 163.219 40.6272 163.219 37.6832C163.219 34.8373 164.152 32.6293 166.016 31.0592C167.93 29.4891 170.138 28.4096 172.64 27.8208C175.192 27.232 178.062 26.7904 181.251 26.496C183.754 26.3488 185.692 26.0299 187.066 25.5392C188.489 25.0485 189.2 24.1163 189.2 22.7424C189.2 20.7797 188.513 19.2832 187.139 18.2528C185.815 17.1733 184.195 16.6336 182.282 16.6336C180.025 16.6336 178.185 17.2469 176.762 18.4736C175.339 19.7003 174.505 21.4176 174.259 23.6256H164.765C164.912 20.4363 165.795 17.7131 167.415 15.456C169.034 13.1499 171.144 11.408 173.744 10.2304C176.394 9.0528 179.289 8.464 182.429 8.464C185.569 8.464 188.366 9.0528 190.819 10.2304C193.273 11.408 195.186 13.1253 196.56 15.3824C197.934 17.6395 198.621 20.3381 198.621 23.4784V37.0208H202.89V46H189.274V32.752C188.44 36.8736 186.722 40.2592 184.122 42.9088C181.57 45.5584 178.258 46.8832 174.186 46.8832ZM179.264 38.9344C181.031 38.9344 182.674 38.4192 184.195 37.3888C185.716 36.3584 186.919 35.0336 187.802 33.4144C188.734 31.7461 189.2 29.9797 189.2 28.1152L189.274 25.8336C188.685 26.3733 187.949 26.7659 187.066 27.0112C186.232 27.2565 185.054 27.5019 183.533 27.7472C183.435 27.7472 183.337 27.7717 183.239 27.8208C183.14 27.8208 183.067 27.8208 183.018 27.8208C179.927 28.1152 177.596 28.7531 176.026 29.7344C174.456 30.6667 173.671 32.0896 173.671 34.0032C173.671 35.6715 174.186 36.9227 175.216 37.7568C176.247 38.5419 177.596 38.9344 179.264 38.9344ZM211.316 46V9.2H221.547V21.344C222.136 17.3205 223.485 14.1803 225.595 11.9232C227.705 9.61706 230.575 8.464 234.206 8.464C238.23 8.464 241.272 9.6416 243.332 11.9968C245.393 14.3029 246.62 17.5904 247.012 21.8592C247.552 17.6395 248.852 14.352 250.913 11.9968C253.023 9.6416 255.992 8.464 259.819 8.464C263.057 8.464 265.609 9.1264 267.473 10.4512C269.387 11.7269 270.736 13.5424 271.521 15.8976C272.355 18.2528 272.772 21.1968 272.772 24.7296V46H262.468V26.3488C262.419 23.8464 261.708 21.8347 260.334 20.3136C258.96 18.7435 257.169 17.9584 254.961 17.9584C253.489 17.9584 252.164 18.3509 250.987 19.136C249.809 19.9211 248.877 20.976 248.19 22.3008C247.503 23.6256 247.16 25.1221 247.16 26.7904V46H236.856V26.3488C236.807 23.8464 236.095 21.8347 234.721 20.3136C233.347 18.7435 231.556 17.9584 229.348 17.9584C227.876 17.9584 226.552 18.3509 225.374 19.136C224.196 19.9211 223.264 20.976 222.577 22.3008C221.89 23.6256 221.547 25.1221 221.547 26.7904V46H211.316Z" fill="white"/>
</svg>
